<svg width="59" height="98" viewBox="0 0 59 98" fill="none" xmlns="http://www.w3.org/2000/svg">
    <path d="M30.612 29.1688L30.6293 29.0977C30.9635 27.884 31.3841 26.3707 31.0557 24.9996C30.8367 23.918 29.9321 23.4965 29.1601 23.466C28.2497 23.4305 27.4373 23.8875 27.2356 24.5527C26.8554 25.7715 27.1953 27.4371 27.8176 29.5598C27.034 31.2051 25.7837 33.5969 24.8676 35.0187C23.1621 35.7957 20.8747 36.9941 20.5348 38.5074C20.4656 38.7867 20.5463 39.1422 20.7364 39.4621C20.9496 39.8176 21.2896 40.0918 21.6871 40.2238C21.86 40.2797 22.0674 40.3254 22.3094 40.3254C23.3234 40.3254 24.9655 39.6043 27.155 36.2934C27.4892 36.1969 27.8349 36.0953 28.169 35.9937C29.7362 35.5266 31.361 35.0391 32.8303 34.8207C34.4551 35.5875 36.3046 36.0801 37.5606 36.0801C38.8052 36.0801 39.2949 35.4301 39.4793 35.0391C39.802 34.3535 39.6464 33.4902 39.1221 33.0281C38.3615 32.368 36.512 32.1953 33.6312 32.5102C32.2138 31.7484 31.2861 30.7125 30.612 29.1688ZM24.2914 36.8824C23.4905 37.9082 22.8855 38.4211 22.5571 38.6445C22.9432 38.0199 23.6979 37.3598 24.2914 36.8824ZM29.3387 24.9234C29.6383 25.3754 29.5979 26.7414 29.3675 27.432C29.0852 26.4215 29.0448 24.9895 29.2119 24.8219C29.258 24.827 29.2983 24.8574 29.3387 24.9234ZM29.2465 31.0426C29.863 31.982 30.6408 32.7895 31.4993 33.3887C30.2548 33.6375 29.1197 34.0488 28.1057 34.4145C27.8637 34.5008 27.6274 34.5871 27.397 34.6684C28.1633 33.4445 28.8028 32.0582 29.2465 31.0426ZM38.2117 34.3687C38.2175 34.3789 38.2232 34.3941 38.1887 34.4145H38.1771L38.1656 34.4297C38.1195 34.4551 37.6471 34.6988 35.6132 33.993C37.9524 33.8965 38.206 34.3637 38.2117 34.3687ZM49.2396 14.6555L36.8404 3.72734C36.4947 3.42266 36.028 3.25 35.5383 3.25H11.0625C10.0427 3.25 9.21875 3.97617 9.21875 4.875V47.125C9.21875 48.0238 10.0427 48.75 11.0625 48.75H47.9375C48.9573 48.75 49.7812 48.0238 49.7812 47.125V15.8082C49.7812 15.3766 49.5854 14.9602 49.2396 14.6555ZM45.5291 16.5547H34.6855V6.99766L45.5291 16.5547ZM45.6328 45.0938H13.3672V6.90625H30.7676V17.875C30.7676 18.4407 31.0225 18.9831 31.4764 19.3831C31.9302 19.7831 32.5457 20.0078 33.1875 20.0078H45.6328V45.0938Z" fill="white"/>
    <path d="M26.44 84.12C25.6667 84.6267 24.56 85.1333 23.12 85.64C21.7067 86.1467 20 86.4 18 86.4C15.84 86.4 14.0133 85.9467 12.52 85.04C11.0533 84.1067 9.93333 82.8133 9.16 81.16C8.41333 79.48 8.04 77.5467 8.04 75.36V69.4C8.04 65.9867 8.89333 63.3067 10.6 61.36C12.3333 59.3867 14.84 58.4 18.12 58.4C19.32 58.4 20.5733 58.5333 21.88 58.8C23.2133 59.0667 24.5333 59.5067 25.84 60.12L24.72 63.12C22.32 62.1333 20.1333 61.64 18.16 61.64C15.9733 61.64 14.3333 62.3067 13.24 63.64C12.1733 64.9467 11.64 66.8667 11.64 69.4V75.36C11.64 77.76 12.1867 79.6667 13.28 81.08C14.3733 82.4933 16.0267 83.2 18.24 83.2C19.0933 83.2 19.96 83.1067 20.84 82.92C21.7467 82.7333 22.5467 82.48 23.24 82.16V74.84H18.16V71.76H26.44V84.12ZM33.3806 86V58.8H41.8206C44.9406 58.8 47.3406 59.7467 49.0206 61.64C50.7006 63.5067 51.5406 66.0933 51.5406 69.4V75.36C51.5406 78.6933 50.7006 81.3067 49.0206 83.2C47.3406 85.0667 44.9406 86 41.8206 86H33.3806ZM41.7406 62.08H36.8606V82.76H41.7406C45.874 82.76 47.9406 80.2933 47.9406 75.36V69.4C47.9406 64.52 45.874 62.08 41.7406 62.08Z" fill="white"/>
</svg>
